<svg width="142" height="94" viewBox="0 0 142 94" fill="none" xmlns="http://www.w3.org/2000/svg">
<mask id="path-1-inside-1_0_305" fill="white">
<rect y="21" width="142" height="73" rx="2"/>
</mask>
<rect y="21" width="142" height="73" rx="2" stroke="#89969F" stroke-width="6" stroke-dasharray="6 6" mask="url(#path-1-inside-1_0_305)"/>
<mask id="path-2-inside-2_0_305" fill="white">
<rect x="35" width="71.9012" height="56" rx="2"/>
</mask>
<rect x="35" width="71.9012" height="56" rx="2" fill="#F6F8F8" stroke="#89969F" stroke-width="6" mask="url(#path-2-inside-2_0_305)"/>
<path d="M37 41L49 29L61 41M61 41L80.5 20.5L105 46M61 41L54 48" stroke="#89969F" stroke-width="3" stroke-linejoin="round"/>
<circle cx="53" cy="15" r="5.5" stroke="#89969F" stroke-width="3"/>
<path d="M109.115 58.2189L107.527 58.074L107.661 56.9479L108.949 56.8304L109.115 58.2189ZM122.087 58.4393L109.281 59.6074L108.949 56.8304L121.755 55.6623L122.087 58.4393ZM110.704 58.3638L109.367 69.5568L106.19 69.267L107.527 58.074L110.704 58.3638ZM110.303 57.1045L124.445 69.4655L122.186 71.4399L108.044 59.0788L110.303 57.1045Z" fill="#89969F"/>
</svg>
